<svg xmlns="http://www.w3.org/2000/svg" viewBox="0 0 48 48"><path fill="#F8BBD0" d="M27,7.1v2c7.3,1,13,7.3,13,14.9s-5.7,13.9-13,14.9v2c8.4-1,15-8.2,15-16.9S35.4,8.1,27,7.1z"/><path fill="#D1C4E9" d="M6,6h6c2.2,0,4,1.8,4,4v28c0,2.2-1.8,4-4,4H6V6z"/><path fill="#E91E63" d="M27,17.3v2.1c1.8,0.8,3,2.5,3,4.6s-1.2,3.8-3,4.6v2.1c2.9-0.9,5-3.5,5-6.7S29.9,18.2,27,17.3z"/><path fill="#F06292" d="M27,12.2v2c4.6,0.9,8,5,8,9.8s-3.4,8.9-8,9.8v2c5.7-1,10-5.9,10-11.8S32.7,13.1,27,12.2z"/><path fill="#E91E63" d="M16,20c2.2,0,4,1.8,4,4s-1.8,4-4,4V20z"/></svg>