<svg xmlns="http://www.w3.org/2000/svg" viewBox="0 0 48 48"><path fill="#bbdefb" d="M21 31c0 3.3-2.8 6-7.5 6h-.9C7.9 37 6 34.3 6 31s.4-6 7-6h1C20.6 25 21 27.7 21 31zM42 31c0 3.3-2.8 6-7.5 6h-.9c-4.7 0-6.6-2.7-6.6-6s.4-6 7-6h1C41.6 25 42 27.7 42 31z"/><path fill="#00838f" d="M43.8 27.7L33.2 12.9c0 0 0 0 0 0 0 0-.8-1-1.7-.9-.8.1-1.8 1.1-2.6 2.7l-.4.9-1.8-.9.4-.9c1.2-2.4 2.6-3.7 4.2-3.8 2.1-.2 3.4 1.6 3.5 1.7l10.6 14.8L43.8 27.7zM4.2 27.7l-1.6-1.2 10.6-14.8c.1-.1 1.4-1.9 3.5-1.7 1.6.1 3 1.4 4.2 3.8l.4.9-1.8.9-.4-.9c-.8-1.7-1.8-2.7-2.6-2.7-.9-.1-1.7.9-1.7.9L4.2 27.7z"/><path fill="#0097a7" d="M13.5 38h-.9C7.8 38 5 35.4 5 31c0-3.5.6-7 8-7h1c7.4 0 8 3.5 8 7C22 35.1 18.5 38 13.5 38zM13 26c-6 0-6 2.2-6 5 0 2.3 1 5 5.6 5h.9c3.8 0 6.5-2.1 6.5-5 0-2.8 0-5-6-5H13zM34.5 38h-.9c-4.7 0-7.6-2.6-7.6-7 0-3.5.6-7 8-7h1c7.4 0 8 3.5 8 7C43 35.1 39.5 38 34.5 38zM34 26c-6 0-6 2.2-6 5 0 2.3 1 5 5.6 5h.9c3.8 0 6.5-2.1 6.5-5 0-2.8 0-5-6-5H34z"/><path fill="#0097a7" d="M4,28.4L2.6,27L3,26c0.2-0.2,2.8-2,10-2c6,0,7.3,0.6,9.3,1.6l0.2,0.1c1.4,0.7,3.2,0,3.2,0l0.9-0.4 l0.8,1.9l-0.9,0.4c-0.1,0-2.7,1-4.8,0l-0.2-0.1C19.6,26.5,18.6,26,13,26c-6.3,0-8.3,1.7-8.3,1.7L4,28.4z"/><path fill="#0097a7" d="M44,28.4l-0.7-0.7C43.2,27.6,41.2,26,35,26c-4.7,0-6.6,0.5-8.6,1.5c-2.2,1.1-4.7,0.1-4.8,0l-0.9-0.4 l0.8-1.9l0.9,0.4c0,0,1.8,0.7,3.2,0c2.2-1.1,4.4-1.7,9.4-1.7c7.2,0,9.8,1.8,10,2l0.4,1L44,28.4z"/><path fill="#0097a7" d="M21.6,29.7l-0.9-1.8l0.9-0.4c2.2-1.1,4.7-0.1,4.8,0l0.9,0.4l-0.8,1.9l-0.9-0.4c0,0-1.8-0.7-3.2,0 L21.6,29.7z"/><path fill="#0097a7" d="M26.4 29.7l-.9-.4c-1.3-.7-3.2 0-3.2 0l-.9.4-.8-1.9.9-.4c.1 0 2.7-1.1 4.8 0l.9.4L26.4 29.7zM42 27c0-.6.4-1 1-1h2c.6 0 1 .4 1 1v1c0 .6-.4 1-1 1 0 0-2 0-2 1s-1-1.4-1-2V27zM6 27c0-.6-.4-1-1-1H3c-.6 0-1 .4-1 1v1c0 .6.4 1 1 1 0 0 2 0 2 1s1-1.4 1-2V27z"/><path fill="#fff" d="M10 32C10 32 10 32 10 32c-.6 0-1-.4-1-1 0-1 .8-3 4-3 .6 0 1 .4 1 1s-.4 1-1 1c-1.8 0-2 .9-2 1C11 31.6 10.5 32 10 32zM31 32C31 32 31 32 31 32c-.6 0-1-.4-1-1 0-1 .8-3 4-3 .6 0 1 .4 1 1s-.4 1-1 1c-1.8 0-2 .9-2 1C32 31.6 31.5 32 31 32z"/></svg>